<?xml version="1.0" encoding="UTF-8"?>
<!--Generator: Apple Native CoreSVG 175.5-->
<!DOCTYPE svg
PUBLIC "-//W3C//DTD SVG 1.1//EN"
       "http://www.w3.org/Graphics/SVG/1.1/DTD/svg11.dtd">
<svg version="1.1" xmlns="http://www.w3.org/2000/svg" xmlns:xlink="http://www.w3.org/1999/xlink" width="3300" height="2200">
 <!--glyph: "uni1008CC.medium", point size: 100.0, font version: "18.0d12e2", template writer version: "101"-->
 <g id="Notes">
  <rect height="2200" id="artboard" style="fill:white;opacity:1" width="3300" x="0" y="0"/>
  <line style="fill:none;stroke:black;opacity:1;stroke-width:0.5;" x1="263" x2="3036" y1="292" y2="292"/>
  <text style="stroke:none;fill:black;font-family:sans-serif;font-size:13;font-weight:bold;" transform="matrix(1 0 0 1 263 322)">Weight/Scale Variations</text>
  <text style="stroke:none;fill:black;font-family:sans-serif;font-size:13;text-anchor:middle;" transform="matrix(1 0 0 1 559.711 322)">Ultralight</text>
  <text style="stroke:none;fill:black;font-family:sans-serif;font-size:13;text-anchor:middle;" transform="matrix(1 0 0 1 856.422 322)">Thin</text>
  <text style="stroke:none;fill:black;font-family:sans-serif;font-size:13;text-anchor:middle;" transform="matrix(1 0 0 1 1153.13 322)">Light</text>
  <text style="stroke:none;fill:black;font-family:sans-serif;font-size:13;text-anchor:middle;" transform="matrix(1 0 0 1 1449.84 322)">Regular</text>
  <text style="stroke:none;fill:black;font-family:sans-serif;font-size:13;text-anchor:middle;" transform="matrix(1 0 0 1 1746.56 322)">Medium</text>
  <text style="stroke:none;fill:black;font-family:sans-serif;font-size:13;text-anchor:middle;" transform="matrix(1 0 0 1 2043.27 322)">Semibold</text>
  <text style="stroke:none;fill:black;font-family:sans-serif;font-size:13;text-anchor:middle;" transform="matrix(1 0 0 1 2339.98 322)">Bold</text>
  <text style="stroke:none;fill:black;font-family:sans-serif;font-size:13;text-anchor:middle;" transform="matrix(1 0 0 1 2636.69 322)">Heavy</text>
  <text style="stroke:none;fill:black;font-family:sans-serif;font-size:13;text-anchor:middle;" transform="matrix(1 0 0 1 2933.4 322)">Black</text>
  <line style="fill:none;stroke:black;opacity:1;stroke-width:0.5;" x1="263" x2="3036" y1="1903" y2="1903"/>
  <g transform="matrix(1 0 0 1 263 1933)">
   <path d="M9.24805 0.830078C13.5547 0.830078 17.1387-2.74414 17.1387-7.05078C17.1387-11.3574 13.5449-14.9316 9.23828-14.9316C4.94141-14.9316 1.36719-11.3574 1.36719-7.05078C1.36719-2.74414 4.95117 0.830078 9.24805 0.830078ZM9.24805-0.654297C5.70312-0.654297 2.87109-3.49609 2.87109-7.05078C2.87109-10.6055 5.69336-13.4473 9.23828-13.4473C12.793-13.4473 15.6445-10.6055 15.6445-7.05078C15.6445-3.49609 12.8027-0.654297 9.24805-0.654297ZM5.6543-7.05078C5.6543-6.62109 5.95703-6.32812 6.40625-6.32812L8.50586-6.32812L8.50586-4.20898C8.50586-3.76953 8.79883-3.4668 9.22852-3.4668C9.67773-3.4668 9.9707-3.76953 9.9707-4.20898L9.9707-6.32812L12.0898-6.32812C12.5293-6.32812 12.832-6.62109 12.832-7.05078C12.832-7.49023 12.5293-7.79297 12.0898-7.79297L9.9707-7.79297L9.9707-9.90234C9.9707-10.3516 9.67773-10.6543 9.22852-10.6543C8.79883-10.6543 8.50586-10.3516 8.50586-9.90234L8.50586-7.79297L6.40625-7.79297C5.95703-7.79297 5.6543-7.49023 5.6543-7.05078Z"/>
  </g>
  <g transform="matrix(1 0 0 1 281.867 1933)">
   <path d="M11.709 2.91016C17.1582 2.91016 21.6699-1.61133 21.6699-7.05078C21.6699-12.5 17.1484-17.0117 11.6992-17.0117C6.25977-17.0117 1.74805-12.5 1.74805-7.05078C1.74805-1.61133 6.26953 2.91016 11.709 2.91016ZM11.709 1.25C7.09961 1.25 3.41797-2.44141 3.41797-7.05078C3.41797-11.6602 7.08984-15.3516 11.6992-15.3516C16.3086-15.3516 20.0098-11.6602 20.0098-7.05078C20.0098-2.44141 16.3184 1.25 11.709 1.25ZM7.17773-7.05078C7.17773-6.57227 7.50977-6.25 8.00781-6.25L10.8789-6.25L10.8789-3.36914C10.8789-2.88086 11.2109-2.53906 11.6895-2.53906C12.1777-2.53906 12.5195-2.87109 12.5195-3.36914L12.5195-6.25L15.4004-6.25C15.8887-6.25 16.2305-6.57227 16.2305-7.05078C16.2305-7.53906 15.8887-7.88086 15.4004-7.88086L12.5195-7.88086L12.5195-10.752C12.5195-11.25 12.1777-11.5918 11.6895-11.5918C11.2109-11.5918 10.8789-11.25 10.8789-10.752L10.8789-7.88086L8.00781-7.88086C7.50977-7.88086 7.17773-7.53906 7.17773-7.05078Z"/>
  </g>
  <g transform="matrix(1 0 0 1 305.646 1933)">
   <path d="M14.9707 5.66406C21.9336 5.66406 27.6953-0.0976562 27.6953-7.05078C27.6953-14.0137 21.9238-19.7754 14.9609-19.7754C8.00781-19.7754 2.25586-14.0137 2.25586-7.05078C2.25586-0.0976562 8.01758 5.66406 14.9707 5.66406ZM14.9707 3.84766C8.93555 3.84766 4.08203-1.01562 4.08203-7.05078C4.08203-13.0957 8.92578-17.9492 14.9609-17.9492C21.0059-17.9492 25.8691-13.0957 25.8691-7.05078C25.8691-1.01562 21.0156 3.84766 14.9707 3.84766ZM9.19922-7.05078C9.19922-6.5332 9.57031-6.17188 10.1172-6.17188L14.0625-6.17188L14.0625-2.2168C14.0625-1.67969 14.4336-1.29883 14.9512-1.29883C15.4883-1.29883 15.8594-1.66992 15.8594-2.2168L15.8594-6.17188L19.8145-6.17188C20.3516-6.17188 20.7324-6.5332 20.7324-7.05078C20.7324-7.59766 20.3613-7.96875 19.8145-7.96875L15.8594-7.96875L15.8594-11.9141C15.8594-12.4609 15.4883-12.8418 14.9512-12.8418C14.4336-12.8418 14.0625-12.4609 14.0625-11.9141L14.0625-7.96875L10.1172-7.96875C9.57031-7.96875 9.19922-7.59766 9.19922-7.05078Z"/>
  </g>
  <text style="stroke:none;fill:black;font-family:sans-serif;font-size:13;font-weight:bold;" transform="matrix(1 0 0 1 263 1953)">Design Variations</text>
  <text style="stroke:none;fill:black;font-family:sans-serif;font-size:13;" transform="matrix(1 0 0 1 263 1971)">Symbols are supported in up to nine weights and three scales.</text>
  <text style="stroke:none;fill:black;font-family:sans-serif;font-size:13;" transform="matrix(1 0 0 1 263 1989)">For optimal layout with text and other symbols, vertically align</text>
  <text style="stroke:none;fill:black;font-family:sans-serif;font-size:13;" transform="matrix(1 0 0 1 263 2007)">symbols with the adjacent text.</text>
  <line style="fill:none;stroke:#00AEEF;stroke-width:0.5;opacity:1.0;" x1="776" x2="776" y1="1919" y2="1933"/>
  <g transform="matrix(1 0 0 1 776 1933)">
   <path d="M3.31055 0.15625C3.82812 0.15625 4.08203-0.0390625 4.26758-0.585938L5.52734-4.0332L11.2891-4.0332L12.5488-0.585938C12.7344-0.0390625 12.9883 0.15625 13.4961 0.15625C14.0137 0.15625 14.3457-0.15625 14.3457-0.644531C14.3457-0.810547 14.3164-0.966797 14.2383-1.17188L9.6582-13.3691C9.43359-13.9648 9.0332-14.2676 8.4082-14.2676C7.80273-14.2676 7.39258-13.9746 7.17773-13.3789L2.59766-1.16211C2.51953-0.957031 2.49023-0.800781 2.49023-0.634766C2.49023-0.146484 2.80273 0.15625 3.31055 0.15625ZM6.00586-5.51758L8.37891-12.0898L8.42773-12.0898L10.8008-5.51758Z"/>
  </g>
  <line style="fill:none;stroke:#00AEEF;stroke-width:0.5;opacity:1.0;" x1="793.197" x2="793.197" y1="1919" y2="1933"/>
  <text style="stroke:none;fill:black;font-family:sans-serif;font-size:13;font-weight:bold;" transform="matrix(1 0 0 1 776 1953)">Margins</text>
  <text style="stroke:none;fill:black;font-family:sans-serif;font-size:13;" transform="matrix(1 0 0 1 776 1971)">Leading and trailing margins on the left and right side of each symbol</text>
  <text style="stroke:none;fill:black;font-family:sans-serif;font-size:13;" transform="matrix(1 0 0 1 776 1989)">can be adjusted by modifying the x-location of the margin guidelines.</text>
  <text style="stroke:none;fill:black;font-family:sans-serif;font-size:13;" transform="matrix(1 0 0 1 776 2007)">Modifications are automatically applied proportionally to all</text>
  <text style="stroke:none;fill:black;font-family:sans-serif;font-size:13;" transform="matrix(1 0 0 1 776 2025)">scales and weights.</text>
  <g transform="matrix(1 0 0 1 1289 1933)">
   <path d="M2.8418 1.86523L4.54102 3.57422C5.40039 4.44336 6.38672 4.38477 7.31445 3.35938L18.0078-8.42773L17.041-9.4043L6.42578 2.27539C6.07422 2.67578 5.74219 2.77344 5.27344 2.30469L4.10156 1.14258C3.63281 0.683594 3.74023 0.341797 4.14062-0.0195312L15.6152-10.8203L14.6387-11.7871L3.04688-0.898438C2.06055 0.0195312 1.98242 0.996094 2.8418 1.86523ZM9.25781-16.3281C8.83789-15.918 8.80859-15.3418 9.04297-14.9512C9.27734-14.5898 9.73633-14.3555 10.3809-14.5215C11.8457-14.8633 13.3691-14.9219 14.7949-13.9844L14.209-12.5293C13.8672-11.6992 14.043-11.1133 14.5801-10.5664L16.875-8.25195C17.3633-7.76367 17.7734-7.74414 18.3398-7.8418L19.4043-8.03711L20.0684-7.36328L20.0293-6.80664C19.9902-6.30859 20.1172-5.92773 20.6055-5.44922L21.3672-4.70703C21.8457-4.22852 22.4609-4.19922 22.9297-4.66797L25.8398-7.58789C26.3086-8.05664 26.2891-8.65234 25.8105-9.13086L25.0391-9.89258C24.5605-10.3711 24.1895-10.5273 23.7109-10.4883L23.1348-10.4395L22.4902-11.0742L22.7344-12.1973C22.8613-12.7637 22.7051-13.2031 22.1191-13.7891L19.9219-15.9766C16.582-19.2969 12.1484-19.2188 9.25781-16.3281ZM10.752-15.957C13.1836-17.7344 16.4746-17.4316 18.7012-15.2051L21.1328-12.793C21.3672-12.5586 21.4062-12.373 21.3379-12.0312L21.0156-10.5469L22.5195-9.0625L23.5059-9.12109C23.7598-9.13086 23.8379-9.11133 24.0332-8.91602L24.6094-8.33984L22.168-5.89844L21.5918-6.47461C21.3965-6.66992 21.3672-6.74805 21.377-7.01172L21.4453-7.98828L19.9512-9.47266L18.4277-9.21875C18.1055-9.15039 17.959-9.17969 17.7148-9.41406L15.7129-11.416C15.459-11.6504 15.4297-11.8164 15.5859-12.1875L16.4648-14.2773C14.9023-15.7324 12.8711-16.3574 10.8398-15.7617C10.6836-15.7227 10.625-15.8496 10.752-15.957Z"/>
  </g>
  <text style="stroke:none;fill:black;font-family:sans-serif;font-size:13;font-weight:bold;" transform="matrix(1 0 0 1 1289 1953)">Exporting</text>
  <text style="stroke:none;fill:black;font-family:sans-serif;font-size:13;" transform="matrix(1 0 0 1 1289 1971)">Symbols should be outlined when exporting to ensure the</text>
  <text style="stroke:none;fill:black;font-family:sans-serif;font-size:13;" transform="matrix(1 0 0 1 1289 1989)">design is preserved when submitting to Xcode.</text>
  <text id="template-version" style="stroke:none;fill:black;font-family:sans-serif;font-size:13;text-anchor:end;" transform="matrix(1 0 0 1 3036 1933)">Template v.4.0</text>
  <text style="stroke:none;fill:black;font-family:sans-serif;font-size:13;text-anchor:end;" transform="matrix(1 0 0 1 3036 1951)">Requires Xcode 14 or greater</text>
  <text id="descriptive-name" style="stroke:none;fill:black;font-family:sans-serif;font-size:13;text-anchor:end;" transform="matrix(1 0 0 1 3036 1969)">Generated from gearshape.fill</text>
  <text style="stroke:none;fill:black;font-family:sans-serif;font-size:13;text-anchor:end;" transform="matrix(1 0 0 1 3036 1987)">Typeset at 100 points</text>
  <text style="stroke:none;fill:black;font-family:sans-serif;font-size:13;" transform="matrix(1 0 0 1 263 726)">Small</text>
  <text style="stroke:none;fill:black;font-family:sans-serif;font-size:13;" transform="matrix(1 0 0 1 263 1156)">Medium</text>
  <text style="stroke:none;fill:black;font-family:sans-serif;font-size:13;" transform="matrix(1 0 0 1 263 1586)">Large</text>
 </g>
 <g id="Guides">
  <g id="H-reference" style="fill:#27AAE1;stroke:none;" transform="matrix(1 0 0 1 339 696)">
   <path d="M0.993654 0L3.63775 0L29.3281-67.1323L30.0303-67.1323L30.0303-70.459L28.1226-70.459ZM11.6885-24.4799L46.9815-24.4799L46.2315-26.7285L12.4385-26.7285ZM55.1196 0L57.7637 0L30.6382-70.459L29.4326-70.459L29.4326-67.1323Z"/>
  </g>
  <line id="Baseline-S" style="fill:none;stroke:#27AAE1;opacity:1;stroke-width:0.5;" x1="263" x2="3036" y1="696" y2="696"/>
  <line id="Capline-S" style="fill:none;stroke:#27AAE1;opacity:1;stroke-width:0.5;" x1="263" x2="3036" y1="625.541" y2="625.541"/>
  <g id="H-reference" style="fill:#27AAE1;stroke:none;" transform="matrix(1 0 0 1 339 1126)">
   <path d="M0.993654 0L3.63775 0L29.3281-67.1323L30.0303-67.1323L30.0303-70.459L28.1226-70.459ZM11.6885-24.4799L46.9815-24.4799L46.2315-26.7285L12.4385-26.7285ZM55.1196 0L57.7637 0L30.6382-70.459L29.4326-70.459L29.4326-67.1323Z"/>
  </g>
  <line id="Baseline-M" style="fill:none;stroke:#27AAE1;opacity:1;stroke-width:0.5;" x1="263" x2="3036" y1="1126" y2="1126"/>
  <line id="Capline-M" style="fill:none;stroke:#27AAE1;opacity:1;stroke-width:0.5;" x1="263" x2="3036" y1="1055.54" y2="1055.54"/>
  <g id="H-reference" style="fill:#27AAE1;stroke:none;" transform="matrix(1 0 0 1 339 1556)">
   <path d="M0.993654 0L3.63775 0L29.3281-67.1323L30.0303-67.1323L30.0303-70.459L28.1226-70.459ZM11.6885-24.4799L46.9815-24.4799L46.2315-26.7285L12.4385-26.7285ZM55.1196 0L57.7637 0L30.6382-70.459L29.4326-70.459L29.4326-67.1323Z"/>
  </g>
  <line id="Baseline-L" style="fill:none;stroke:#27AAE1;opacity:1;stroke-width:0.5;" x1="263" x2="3036" y1="1556" y2="1556"/>
  <line id="Capline-L" style="fill:none;stroke:#27AAE1;opacity:1;stroke-width:0.5;" x1="263" x2="3036" y1="1485.54" y2="1485.54"/>
  <line id="left-margin-Regular-M" style="fill:none;stroke:#00AEEF;stroke-width:0.5;opacity:1.0;" x1="1390.13" x2="1390.13" y1="1030.79" y2="1150.12"/>
  <line id="right-margin-Regular-M" style="fill:none;stroke:#00AEEF;stroke-width:0.5;opacity:1.0;" x1="1509.56" x2="1509.56" y1="1030.79" y2="1150.12"/>
 </g>
 <g id="Symbols">
  <g id="Black-L" transform="matrix(1 0 0 1 2851.44 1556)">
   <path d="M76.3092 35.3845L87.6115 35.3845C92.8786 35.3845 97.0422 32.1111 98.1772 27.0365L101.002 15.2028C102.238 14.789 103.375 14.2972 104.449 13.821L114.751 20.2052C119.086 22.872 124.441 22.3376 128.078 18.7585L136.054 10.7826C139.693 7.14387 140.19 1.57358 137.365-2.72643L131.118-12.9465C131.594-13.9633 132.049-15.0414 132.421-16.1375L144.356-18.9835C149.409-20.0977 152.662-24.2613 152.662-29.5491L152.662-40.6126C152.662-45.8004 149.409-49.964 144.356-51.1366L132.579-53.945C132.165-55.1451 131.69-56.2608 131.218-57.2152L137.523-67.7314C140.328-72.2054 139.872-77.5392 136.096-81.1403L127.962-89.1746C124.303-92.42 119.52-93.0546 115.164-90.7213L104.449-84.1203C103.396-84.655 102.259-85.0884 101.061-85.5605L98.1772-97.5735C97.0422-102.648 92.8786-105.921 87.6115-105.921L76.3092-105.921C71.0422-105.921 66.8786-102.648 65.7644-97.5151L62.9184-85.6606C61.7015-85.2468 60.4661-84.755 59.4117-84.1996L48.7764-90.7213C44.3411-93.0546 39.6162-92.4993 35.8995-89.1162L27.8235-81.1403C24.0472-77.5392 23.592-72.2054 26.3965-67.7314L32.7014-57.2152C32.2292-56.2608 31.7542-55.1451 31.3613-53.945L19.586-51.1366C14.5114-49.964 11.2588-45.8004 11.2588-40.6126L11.2588-29.5491C11.2588-24.2613 14.5114-20.0977 19.586-18.9835L31.5197-16.1375C31.871-15.0414 32.3252-13.9633 32.8015-12.9465L26.5549-2.72643C23.7296 1.57358 24.2265 7.14387 27.8652 10.7826L35.8411 18.7585C39.4786 22.3376 44.8332 22.872 49.1892 20.2052L59.4909 13.821C60.5454 14.2972 61.7015 14.789 62.9184 15.2028L65.7644 27.0365C66.8786 32.1111 71.0422 35.3845 76.3092 35.3845ZM81.9714-13.8407C70.2088-13.8407 60.6008-23.4904 60.6008-35.2905C60.6008-46.9506 70.21-56.5795 81.9714-56.5795C93.7131-56.5795 103.321-46.9506 103.321-35.2905C103.321-23.4904 93.7131-13.8407 81.9714-13.8407Z"/>
  </g>
  <g id="Heavy-L" transform="matrix(1 0 0 1 2555.92 1556)">
   <path d="M75.0745 34.2171L86.4701 34.2171C91.2768 34.2171 95.0225 31.2607 96.0698 26.6013L98.9876 14.3189C100.492 13.8081 101.903 13.2281 103.217 12.6267L113.925 19.2601C117.882 21.7054 122.709 21.2354 126.024 17.965L134.053 9.9361C137.373 6.61552 137.829 1.60047 135.234-2.35333L128.72-12.9758C129.321-14.2512 129.887-15.6115 130.337-16.9617L142.73-19.9097C147.36-20.9269 150.286-24.6725 150.286-29.5094L150.286-40.675C150.286-45.4068 147.36-49.1525 142.73-50.2143L130.487-53.1478C129.976-54.6489 129.38-56.0237 128.825-57.2085L135.384-68.1C137.948-72.1821 137.553-76.9783 134.113-80.2845L125.935-88.358C122.589-91.3449 118.271-91.9199 114.284-89.7581L103.217-82.9305C101.933-83.5765 100.522-84.1118 99.0322-84.6673L96.0698-97.1295C95.0225-101.789 91.2768-104.745 86.4701-104.745L75.0745-104.745C70.2679-104.745 66.5222-101.789 65.505-97.0848L62.5571-84.7723C61.0717-84.2615 59.5674-83.6815 58.2775-83.0053L47.2855-89.7581C43.2235-91.9199 38.9496-91.4197 35.5599-88.3134L27.4259-80.2845C23.9859-76.9783 23.5908-72.1821 26.1555-68.1L32.714-57.2085C32.1586-56.0237 31.5628-54.6489 31.0822-53.1478L18.8444-50.2143C14.185-49.1525 11.2588-45.4068 11.2588-40.675L11.2588-29.5094C11.2588-24.6725 14.185-20.9269 18.8444-19.9097L31.2318-16.9617C31.6521-15.6115 32.2176-14.2512 32.819-12.9758L26.3051-2.35333C23.7102 1.60047 24.1657 6.61552 27.4863 9.9361L35.5152 17.965C38.8302 21.2354 43.6566 21.7054 47.6438 19.2601L58.3523 12.6267C59.6422 13.2281 61.0717 13.8081 62.5571 14.3189L65.505 26.6013C66.5222 31.2607 70.2679 34.2171 75.0745 34.2171ZM80.7902-13.6223C68.8953-13.6223 59.1875-23.3905 59.1875-35.2999C59.1875-47.0786 68.9009-56.8166 80.7902-56.8166C92.655-56.8166 102.363-47.0786 102.363-35.2999C102.363-23.3905 92.655-13.6223 80.7902-13.6223Z"/>
  </g>
  <g id="Bold-L" transform="matrix(1 0 0 1 2260.6 1556)">
   <path d="M73.605 32.847L85.1532 32.847C89.4582 32.847 92.7337 30.2453 93.6884 26.0261L96.699 13.2873C98.4668 12.676 100.156 12.0107 101.718 11.2854L112.844 18.1815C116.399 20.3949 120.632 19.9944 123.6 17.056L131.72 8.93569C134.701 5.95489 135.11 1.57167 132.762-2.01895L125.963-13.0514C126.688-14.5973 127.362-16.2439 127.897-17.857L140.754-20.9056C144.936-21.8223 147.499-25.0978 147.499-29.4408L147.499-40.7742C147.499-45.012 144.936-48.2875 140.754-49.2334L128.032-52.2908C127.42-54.0938 126.708-55.7316 126.068-57.1636L132.897-68.4268C135.206-72.0918 134.873-76.2867 131.796-79.2763L123.541-87.4258C120.536-90.1422 116.726-90.6479 113.133-88.6564L101.718-81.5968C100.194-82.3513 98.5048-82.9873 96.7282-83.6278L93.6884-96.5391C92.7337-100.758 89.4582-103.36 85.1532-103.36L73.605-103.36C69.3-103.36 66.0245-100.758 65.1078-96.5099L62.0592-83.733C60.3029-83.1217 58.5352-82.4565 56.9981-81.664L45.65-88.6564C41.9894-90.6479 38.2093-90.2094 35.1746-87.3966L26.9491-79.2763C23.8719-76.2867 23.5385-72.0918 25.8484-68.4268L32.6772-57.1636C32.0367-55.7316 31.3247-54.0938 30.7514-52.2908L18.0417-49.2334C13.8226-48.2875 11.2588-45.012 11.2588-40.7742L11.2588-29.4408C11.2588-25.0978 13.8226-21.8223 18.0417-20.9056L30.8857-17.857C31.3831-16.2439 32.0571-14.5973 32.7824-13.0514L25.9828-2.01895C23.6349 1.57167 24.0442 5.95489 27.025 8.93569L35.1454 17.056C38.1129 19.9944 42.3458 20.3949 45.9392 18.1815L57.0653 11.2854C58.6024 12.0107 60.3029 12.676 62.0592 13.2873L65.1078 26.0261C66.0245 30.2453 69.3 32.847 73.605 32.847ZM79.4047-13.3459C67.3484-13.3459 57.5101-23.2601 57.5101-35.3077C57.5101-47.2324 67.3616-57.1086 79.4047-57.1086C91.4231-57.1086 101.261-47.2324 101.261-35.3077C101.261-23.2601 91.4231-13.3459 79.4047-13.3459Z"/>
  </g>
  <g id="Semibold-L" transform="matrix(1 0 0 1 1964.85 1556)">
   <path d="M72.592 31.9025L84.2453 31.9025C88.2045 31.9025 91.1559 29.5452 92.0466 25.6296L95.1213 12.5761C97.0707 11.8955 98.9517 11.1714 100.684 10.3608L112.098 17.4379C115.377 19.4915 119.2 19.1389 121.928 16.4294L130.112 8.24602C132.858 5.49946 133.236 1.55181 131.058-1.78843L124.062-13.1035C124.872-14.8359 125.621-16.6799 126.215-18.4741L139.392-21.5922C143.265-22.4396 145.578-25.3909 145.578-29.3936L145.578-40.8426C145.578-44.7399 143.265-47.6912 139.392-48.5572L126.339-51.7C125.658-53.7111 124.866-55.5303 124.167-57.1326L131.182-68.6521C133.316-72.0296 133.026-75.8099 130.198-78.5812L121.891-86.7831C119.12-89.313 115.662-89.771 112.34-87.8969L100.684-80.6774C98.9951-81.5066 97.114-82.2121 95.1399-82.9113L92.0466-96.132C91.1559-100.048 88.2045-102.405 84.2453-102.405L72.592-102.405C68.6327-102.405 65.6814-100.048 64.834-96.1135L61.7159-83.0166C59.773-82.336 57.8236-81.6119 56.1161-80.7393L44.5224-87.8969C41.1387-89.771 37.699-89.375 34.9089-86.7646L26.6203-78.5812C23.7932-75.8099 23.5026-72.0296 25.6367-68.6521L32.6518-57.1326C31.9527-55.5303 31.1605-53.7111 30.5233-51.7L17.4883-48.5572C13.5727-47.6912 11.2588-44.7399 11.2588-40.8426L11.2588-29.3936C11.2588-25.3909 13.5727-22.4396 17.4883-21.5922L30.6471-18.4741C31.1976-16.6799 31.9465-14.8359 32.7572-13.1035L25.7605-1.78843C23.5831 1.55181 23.9605 5.49946 26.707 8.24602L34.8904 16.4294C37.6184 19.1389 41.4421 19.4915 44.764 17.4379L56.178 10.3608C57.8856 11.1714 59.773 11.8955 61.7159 12.5761L64.834 25.6296C65.6814 29.5452 68.6327 31.9025 72.592 31.9025ZM78.4495-13.1553C66.2819-13.1553 56.3537-23.1702 56.3537-35.3131C56.3537-47.3384 66.3004-57.31 78.4495-57.31C90.5738-57.31 100.502-47.3384 100.502-35.3131C100.502-23.1702 90.5738-13.1553 78.4495-13.1553Z"/>
  </g>
  <g id="Medium-L" transform="matrix(1 0 0 1 1668.87 1556)">
   <path d="M71.8238 31.1863L83.5569 31.1863C87.2539 31.1863 89.9595 29.0144 90.8018 25.3289L93.925 12.0368C96.0121 11.3037 98.0387 10.5351 99.9005 9.65962L111.533 16.8741C114.601 18.8065 118.115 18.4902 120.661 15.9542L128.892 7.72308C131.461 5.15413 131.814 1.53675 129.766-1.61364L122.62-13.1431C123.496-15.0168 124.301-17.0104 124.939-18.9421L138.359-22.1128C141.997-22.9077 144.122-25.6132 144.122-29.3577L144.122-40.8944C144.122-44.5335 141.997-47.2391 138.359-48.0444L125.055-51.2521C124.322-53.421 123.469-55.3777 122.726-57.1091L129.882-68.8229C131.883-71.9824 131.625-75.4483 128.987-78.0542L120.64-86.2958C118.046-88.6844 114.854-89.106 111.738-87.3211L99.9005-79.9802C98.0861-80.8662 96.0595-81.6243 93.9355-82.3679L90.8018-95.8234C89.9595-99.5089 87.2539-101.681 83.5569-101.681L71.8238-101.681C68.1268-101.681 65.4212-99.5089 64.6264-95.8129L61.4557-82.4733C59.3711-81.7402 57.2841-80.9716 55.4473-80.0382L43.6675-87.3211C40.4936-89.106 37.312-88.7423 34.7075-86.2853L26.371-78.0542C23.7336-75.4483 23.4753-71.9824 25.4761-68.8229L32.6326-57.1091C31.889-55.3777 31.036-53.421 30.3503-51.2521L17.0687-48.0444C13.3832-47.2391 11.2588-44.5335 11.2588-40.8944L11.2588-29.3577C11.2588-25.6132 13.3832-22.9077 17.0687-22.1128L30.4662-18.9421C31.057-17.0104 31.8626-15.0168 32.738-13.1431L25.5921-1.61364C23.5437 1.53675 23.8969 5.15413 26.4659 7.72308L34.697 15.9542C37.2435 18.4902 40.7569 18.8065 43.8729 16.8741L55.5052 9.65962C57.342 10.5351 59.3711 11.3037 61.4557 12.0368L64.6264 25.3289C65.4212 29.0144 68.1268 31.1863 71.8238 31.1863ZM77.7253-13.0108C65.4733-13.0108 55.4769-23.102 55.4769-35.3171C55.4769-47.4189 65.4957-57.4626 77.7253-57.4626C89.9299-57.4626 99.9262-47.4189 99.9262-35.3171C99.9262-23.102 89.9299-13.0108 77.7253-13.0108Z"/>
  </g>
  <g id="Regular-L" transform="matrix(1 0 0 1 1373.1 1556)">
   <path d="M70.8219 30.2521L82.6589 30.2521C86.014 30.2521 88.399 28.3221 89.178 24.9368L92.3646 11.3334C94.6313 10.5318 96.8477 9.70504 98.8783 8.7451L110.795 16.1386C113.59 17.913 116.699 17.6441 119.008 15.3344L127.302 7.04098C129.639 4.7037 129.961 1.51711 128.081-1.38565L120.74-13.1946C121.7-15.2528 122.58-17.4416 123.276-19.5525L137.012-22.7919C140.345-23.5182 142.222-25.9031 142.222-29.311L142.222-40.9621C142.222-44.2644 140.345-46.6493 137.012-47.3756L123.381-50.6678C122.58-53.0425 121.647-55.1785 120.846-57.0784L128.186-69.0457C130.014-71.9208 129.797-74.9767 127.407-77.3668L119.008-85.6602C116.646-87.8643 113.801-88.2388 110.954-86.57L98.8783-79.0709C96.9005-80.0308 94.6841-80.8576 92.3646-81.6592L89.178-95.4209C88.399-98.8061 86.014-100.736 82.6589-100.736L70.8219-100.736C67.4668-100.736 65.0819-98.8061 64.3555-95.4209L61.1162-81.7648C58.847-80.9631 56.5803-80.1364 54.5749-79.1237L42.5523-86.57C39.6521-88.2388 36.8072-87.9171 34.4448-85.6602L26.0459-77.3668C23.6558-74.9767 23.4397-71.9208 25.2668-69.0457L32.6075-57.0784C31.8059-55.1785 30.8736-53.0425 30.1247-50.6678L16.5214-47.3756C13.1361-46.6493 11.2588-44.2644 11.2588-40.9621L11.2588-29.311C11.2588-25.9031 13.1361-23.5182 16.5214-22.7919L30.2302-19.5525C30.8736-17.4416 31.7531-15.2528 32.7131-13.1946L25.3723-1.38565C23.4924 1.51711 23.8141 4.7037 26.1514 7.04098L34.4448 15.3344C36.7545 17.6441 39.8632 17.913 42.7106 16.1386L54.6277 8.7451C56.6331 9.70504 58.847 10.5318 61.1162 11.3334L64.3555 24.9368C65.0819 28.3221 67.4668 30.2521 70.8219 30.2521ZM76.7806-12.8223C64.4185-12.8223 54.3333-23.0131 54.3333-35.3225C54.3333-47.5237 64.4462-57.6617 76.7806-57.6617C89.09-57.6617 99.1752-47.5237 99.1752-35.3225C99.1752-23.0131 89.09-12.8223 76.7806-12.8223Z"/>
  </g>
  <g id="Light-L" transform="matrix(1 0 0 1 1076.85 1556)">
   <path d="M70.1921 29.7941L82.3727 29.7941C85.8232 29.7941 88.189 27.864 89.0063 24.307L92.1165 11.0281C94.116 10.2837 96.1416 9.55236 98.0194 8.70693L109.669 15.986C112.617 17.8748 115.706 17.5868 118.111 15.1818L126.634 6.65928C129.086 4.20749 129.407 1.09724 127.451-1.9773L120.206-13.5C121.051-15.4246 121.816-17.4034 122.493-19.3617L135.886-22.5056C139.41-23.2892 141.306-25.655 141.306-29.1392L141.306-41.172C141.306-44.5888 139.41-46.9547 135.886-47.7383L122.561-50.9159C121.816-53.0425 121.017-54.9877 120.273-56.8112L127.518-68.4349C129.441-71.4627 129.187-74.5187 126.701-77.0042L118.111-85.5266C115.673-87.8643 112.751-88.2197 109.77-86.3982L98.0194-79.0518C96.1753-79.8972 94.1497-80.6286 92.1165-81.373L89.0063-94.7529C88.189-98.3099 85.8232-100.24 82.3727-100.24L70.1921-100.24C66.7416-100.24 64.3757-98.3099 63.5921-94.7529L60.4482-81.4403C58.3889-80.6959 56.3895-79.9646 54.4986-79.0855L42.7814-86.3982C39.7666-88.2197 36.8454-87.898 34.4067-85.5266L25.8168-77.0042C23.3314-74.5187 23.077-71.4627 24.9996-68.4349L32.2449-56.8112C31.5005-54.9877 30.7018-53.0425 29.9911-50.9159L16.7122-47.7383C13.1552-46.9547 11.2588-44.5888 11.2588-41.172L11.2588-29.1392C11.2588-25.655 13.1552-23.2892 16.7122-22.5056L30.0585-19.3617C30.7018-17.4034 31.4668-15.4246 32.3123-13.5L25.0669-1.9773C23.1107 1.09724 23.4324 4.20749 25.8842 6.65928L34.4067 15.1818C36.8117 17.5868 39.9013 17.8748 42.8824 15.986L54.5323 8.70693C56.4231 9.55236 58.3889 10.2837 60.4482 11.0281L63.5921 24.307C64.3757 27.864 66.7416 29.7941 70.1921 29.7941ZM76.3226-12.5933C63.865-12.5933 53.6462-22.8795 53.6462-35.3034C53.6462-47.6001 63.9118-57.8526 76.3226-57.8526C88.7464-57.8526 98.9653-47.6001 98.9653-35.3034C98.9653-22.8795 88.7464-12.5933 76.3226-12.5933Z"/>
  </g>
  <g id="Thin-L" transform="matrix(1 0 0 1 780.746 1556)">
   <path d="M69.3591 29.1883L81.994 29.1883C85.5707 29.1883 87.9114 27.2582 88.7791 23.474L91.7884 10.6242C93.4345 9.95554 95.2076 9.35042 96.8835 8.65645L108.18 15.784C111.329 17.8243 114.394 17.5111 116.925 14.9798L125.75 6.15444C128.354 3.5512 128.675 0.541919 126.618-2.75979L119.499-13.9039C120.193-15.6517 120.806-17.3529 121.458-19.1092L134.397-22.127C138.173-22.9863 140.094-25.3269 140.094-28.912L140.094-41.4497C140.094-45.0179 138.173-47.3586 134.397-48.2179L121.475-51.244C120.806-53.0425 120.184-54.7353 119.516-56.4578L126.635-67.6272C128.684-70.8569 128.379-73.9129 125.767-76.5246L116.925-85.3499C114.385-87.8643 111.363-88.1944 108.205-86.171L96.8835-79.0266C95.2161-79.7206 93.4429-80.3257 91.7884-80.9943L88.7791-93.8694C87.9114-97.6536 85.5707-99.5837 81.994-99.5837L69.3591-99.5837C65.7824-99.5837 63.4418-97.6536 62.5825-93.8694L59.5647-81.0112C57.7831-80.3425 56.137-79.7374 54.3976-79.035L43.0843-86.171C39.9181-88.1944 36.8959-87.8728 34.3562-85.3499L25.5139-76.5246C22.9023-73.9129 22.5974-70.8569 24.6462-67.6272L31.7653-56.4578C31.0966-54.7353 30.4747-53.0425 29.8144-51.244L16.9647-48.2179C13.1804-47.3586 11.2588-45.0179 11.2588-41.4497L11.2588-28.912C11.2588-25.3269 13.1804-22.9863 16.9647-22.127L29.8313-19.1092C30.4747-17.3529 31.0882-15.6517 31.7822-13.9039L24.6631-2.75979C22.6059 0.541919 22.9276 3.5512 25.5308 6.15444L34.3562 14.9798C36.8874 17.5111 39.9518 17.8243 43.1096 15.784L54.406 8.65645C56.1455 9.35042 57.7831 9.95554 59.5647 10.6242L62.5825 23.474C63.4418 27.2582 65.7824 29.1883 69.3591 29.1883ZM75.7168-12.2904C63.133-12.2904 52.7375-22.7028 52.7375-35.2781C52.7375-47.701 63.205-58.105 75.7168-58.105C88.2921-58.105 98.6876-47.701 98.6876-35.2781C98.6876-22.7028 88.2921-12.2904 75.7168-12.2904Z"/>
  </g>
  <g id="Ultralight-L" transform="matrix(1 0 0 1 484.345 1556)">
   <path d="M68.9325 28.878L81.8001 28.878C85.4415 28.878 87.7691 26.9479 88.6627 23.0473L91.6203 10.4174C93.0854 9.78747 94.7293 9.24699 96.3017 8.63059L107.417 15.6806C110.67 17.7985 113.721 17.4723 116.317 14.8764L125.298 5.89587C127.979 3.21505 128.3 0.257486 126.191-3.16058L119.137-14.1107C119.753-15.7681 120.289-17.3271 120.928-18.98L133.634-21.933C137.539-22.8311 139.474-25.1588 139.474-28.7957L139.474-41.5919C139.474-45.2377 137.539-47.5654 133.634-48.4635L120.919-51.4121C120.289-53.0425 119.758-54.606 119.128-56.2768L126.182-67.2135C128.296-70.5466 127.965-73.6026 125.289-76.2789L116.317-85.2594C113.726-87.8643 110.652-88.1815 107.404-86.0547L96.3017-79.0136C94.7248-79.6301 93.0809-80.1705 91.6203-80.8004L88.6627-93.4169C87.7691-97.3175 85.4415-99.2476 81.8001-99.2476L68.9325-99.2476C65.2911-99.2476 62.9634-97.3175 62.0653-93.4169L59.1122-80.7914C57.4728-80.1615 56.0078-79.6211 54.3459-79.0092L43.2394-86.0547C39.9957-88.1815 36.9217-87.8598 34.3303-85.2594L25.3588-76.2789C22.6825-73.6026 22.3518-70.5466 24.4652-67.2135L31.5197-56.2768C30.8898-54.606 30.3583-53.0425 29.7239-51.4121L17.0939-48.4635C13.1934-47.5654 11.2588-45.2377 11.2588-41.5919L11.2588-28.7957C11.2588-25.1588 13.1934-22.8311 17.0939-21.933L29.7149-18.98C30.3583-17.3271 30.8943-15.7681 31.5107-14.1107L24.4562-3.16058C22.3473 0.257486 22.669 3.21505 25.3498 5.89587L34.3303 14.8764C36.9262 17.4723 39.9777 17.7985 43.2259 15.6806L54.3414 8.63059C56.0033 9.24699 57.4728 9.78747 59.1122 10.4174L62.0653 23.0473C62.9634 26.9479 65.2911 28.878 68.9325 28.878ZM75.4065-12.1353C62.7581-12.1353 52.2721-22.6123 52.2721-35.2652C52.2721-47.7528 62.843-58.2343 75.4065-58.2343C88.0594-58.2343 98.5454-47.7528 98.5454-35.2652C98.5454-22.6123 88.0594-12.1353 75.4065-12.1353Z"/>
  </g>
  <g id="Black-M" transform="matrix(1 0 0 1 2868.94 1126)">
   <path d="M60.0957 20.4193L68.8185 20.4193C73.3076 20.4193 76.89 17.6108 77.8498 13.2993L79.9487 4.56081C80.6384 4.33138 81.2594 4.03908 81.8643 3.79318L89.4596 8.50959C93.164 10.7817 97.7638 10.3096 100.872 7.25848L107.037 1.09371C110.145-2.01422 110.565-6.7966 108.168-10.4488L103.571-17.9821C103.817-18.5296 104.058-19.0938 104.276-19.7039L113.083-21.8082C117.389-22.7626 120.192-26.3449 120.192-30.8396L120.192-39.3748C120.192-43.8014 117.389-47.3837 113.083-48.3952L104.401-50.4479C104.172-51.0854 103.926-51.7013 103.639-52.2323L108.293-60.0105C110.685-63.8342 110.275-68.4286 107.048-71.4849L100.758-77.7068C97.6441-80.4614 93.5285-81.0016 89.8187-79.026L81.8643-74.1273C81.2649-74.4303 80.6439-74.6655 80.0058-74.952L77.8498-83.8211C76.89-88.1327 73.3076-90.9412 68.8185-90.9412L60.0957-90.9412C55.6066-90.9412 52.0243-88.1327 51.0699-83.764L48.9656-75.0201C48.2819-74.7906 47.5922-74.4983 46.9931-74.1899L39.1014-79.026C35.3289-81.0016 31.2704-80.524 28.0996-77.6497L21.8667-71.4849C18.6391-68.4286 18.2296-63.8342 20.6214-60.0105L25.2752-52.2323C24.9887-51.7013 24.7425-51.0854 24.5186-50.4479L15.8372-48.3952C11.5257-47.3837 8.72266-43.8014 8.72266-39.3748L8.72266-30.8396C8.72266-26.3449 11.5257-22.7626 15.8372-21.8082L24.6438-19.7039C24.8567-19.0938 25.0974-18.5296 25.3433-17.9821L20.7466-10.4488C18.3493-6.7966 18.7698-2.01422 21.8777 1.09371L28.0425 7.25848C31.1507 10.3096 35.7505 10.7817 39.4604 8.50959L47.0557 3.79318C47.6548 4.03908 48.2819 4.33138 48.9656 4.56081L51.0699 13.2993C52.0243 17.6108 55.6066 20.4193 60.0957 20.4193ZM64.4597-18.8154C55.4476-18.8154 48.0716-26.2024 48.0716-35.2661C48.0716-44.2107 55.4473-51.5923 64.4597-51.5923C73.4664-51.5923 80.8424-44.2107 80.8424-35.2661C80.8424-26.2024 73.4664-18.8154 64.4597-18.8154Z"/>
  </g>
  <g id="Heavy-M" transform="matrix(1 0 0 1 2573.35 1126)">
   <path d="M58.9469 19.3204L67.7291 19.3204C71.7594 19.3204 74.9349 16.8218 75.8056 12.9319L78.002 3.72489C78.9793 3.39534 79.8847 3.00802 80.7386 2.62924L88.7563 7.5998C92.0769 9.64473 96.1621 9.23743 98.9462 6.49692L105.142 0.301467C107.928-2.48494 108.308-6.73158 106.143-10.0295L101.276-17.9826C101.655-18.7951 102.015-19.6547 102.312-20.5272L111.598-22.7401C115.471-23.5943 117.953-26.7698 117.953-30.8165L117.953-39.4164C117.953-43.3867 115.471-46.5622 111.598-47.4601L102.432-49.6457C102.102-50.6004 101.726-51.4871 101.353-52.2504L106.263-60.4272C108.412-63.8537 108.065-67.9225 105.175-70.6817L98.859-76.9208C96.0585-79.4104 92.4042-79.8941 89.0672-78.1001L80.7386-72.9659C79.9011-73.3883 78.9957-73.732 78.0456-74.1052L75.8056-83.4487C74.9349-87.3385 71.7594-89.8371 67.7291-89.8371L58.9469-89.8371C54.9165-89.8371 51.741-87.3385 50.8868-83.4051L48.674-74.1816C47.7085-73.852 46.7312-73.4647 45.8914-73.0259L37.6229-78.1001C34.2258-79.8941 30.6152-79.4704 27.7711-76.8772L21.4992-70.6817C18.6091-67.9225 18.2619-63.8537 20.4104-60.4272L25.321-52.2504C24.9478-51.4871 24.5713-50.6004 24.2581-49.6457L15.0947-47.4601C11.2049-46.5622 8.72266-43.3867 8.72266-39.4164L8.72266-30.8165C8.72266-26.7698 11.2049-23.5943 15.0947-22.7401L24.3782-20.5272C24.6585-19.6547 25.0186-18.7951 25.3974-17.9826L20.5305-10.0295C18.3655-6.73158 18.7456-2.48494 21.532 0.301467L27.7275 6.49692C30.5116 9.23743 34.5968 9.64473 37.9338 7.5998L45.9515 2.62924C46.7912 3.00802 47.7085 3.39534 48.674 3.72489L50.8868 12.9319C51.741 16.8218 54.9165 19.3204 58.9469 19.3204ZM63.3473-18.623C54.2146-18.623 46.7533-26.1171 46.7533-35.2771C46.7533-44.3288 54.2169-51.8065 63.3473-51.8065C72.4636-51.8065 79.9249-44.3288 79.9249-35.2771C79.9249-26.1171 72.4636-18.623 63.3473-18.623Z"/>
  </g>
  <g id="Bold-M" transform="matrix(1 0 0 1 2277.89 1126)">
   <path d="M57.6617 18.0911L66.5105 18.0911C70.0275 18.0911 72.748 15.9392 73.5188 12.521L75.8244 2.7898C77.1234 2.34823 78.3469 1.85463 79.4794 1.3272L87.9695 6.58207C90.8608 8.37284 94.3704 8.03805 96.792 5.645L103.022-0.584776C105.448-3.01151 105.783-6.65885 103.878-9.56046L98.7091-17.9831C99.2365-19.0922 99.7302-20.282 100.115-21.4483L109.937-23.7825C113.326-24.5247 115.449-27.2451 115.449-30.7908L115.449-39.463C115.449-42.9229 113.326-45.6433 109.937-46.4141L100.229-48.7483C99.7873-50.0577 99.265-51.2475 98.7949-52.2707L103.993-60.8934C105.869-63.8755 105.591-67.3565 103.079-69.7833L96.7349-76.0416C94.2847-78.2347 91.1466-78.6553 88.2267-77.0645L79.4794-71.6667C78.3755-72.2227 77.152-72.6877 75.853-73.1579L73.5188-83.032C72.748-86.4502 70.0275-88.6021 66.5105-88.6021L57.6617-88.6021C54.1446-88.6021 51.4242-86.4502 50.6819-83.0035L48.3478-73.2436C47.0671-72.8021 45.7681-72.3085 44.6591-71.7239L35.969-77.0645C32.9919-78.6553 29.8824-78.2918 27.4036-76.0131L21.088-69.7833C18.5756-67.3565 18.298-63.8755 20.1744-60.8934L25.3721-52.2707C24.902-51.2475 24.3797-50.0577 23.9668-48.7483L14.2641-46.4141C10.846-45.6433 8.72266-42.9229 8.72266-39.463L8.72266-30.7908C8.72266-27.2451 10.846-24.5247 14.2641-23.7825L24.0811-21.4483C24.4368-20.282 24.9305-19.0922 25.4579-17.9831L20.2888-9.56046C18.3837-6.65885 18.7185-3.01151 21.1453-0.584776L27.3751 5.645C29.7967 8.03805 33.3062 8.37284 36.2261 6.58207L44.7162 1.3272C45.8252 1.85463 47.0671 2.34823 48.3478 2.7898L50.6819 12.521C51.4242 15.9392 54.1446 18.0911 57.6617 18.0911ZM62.103-18.4078C52.8354-18.4078 45.2787-26.0217 45.2787-35.2893C45.2787-44.4608 52.8405-52.0461 62.103-52.0461C71.3419-52.0461 78.8986-44.4608 78.8986-35.2893C78.8986-26.0217 71.3419-18.4078 62.103-18.4078Z"/>
  </g>
  <g id="Semibold-M" transform="matrix(1 0 0 1 1982.04 1126)">
   <path d="M56.7757 17.2436L65.6704 17.2436C68.8336 17.2436 71.2403 15.3307 71.9424 12.2377L74.3232 2.14515C75.844 1.62637 77.2868 1.05949 78.6113 0.429584L87.4271 5.88046C90.0224 7.496 93.1352 7.2112 95.3068 5.05769L101.56-1.19575C103.739-3.37452 104.043-6.6087 102.317-9.23709L96.9393-17.9835C97.5692-19.297 98.1549-20.7145 98.5996-22.0832L108.792-24.5011C111.848-25.1661 113.723-27.5728 113.723-30.7731L113.723-39.4951C113.723-42.6031 111.848-45.0098 108.792-45.693L98.71-48.1297C98.1912-49.6836 97.5684-51.0823 97.0315-52.2846L102.427-61.2148C104.116-63.8905 103.886-66.9662 101.634-69.1639L95.2705-75.4355C93.0618-77.4241 90.2795-77.8012 87.6472-76.3505L78.6113-70.7711C77.3238-71.4191 75.881-71.9678 74.3413-72.5048L71.9424-82.7448C71.2403-85.8378 68.8336-87.7507 65.6704-87.7507L56.7757-87.7507C53.6125-87.7507 51.2057-85.8378 50.5407-82.7266L48.1229-72.597C46.6249-72.0782 45.1041-71.5114 43.8095-70.8263L34.8288-76.3505C32.1412-77.8012 29.3771-77.4793 27.1503-75.4173L20.8046-69.1639C18.5525-66.9662 18.3228-63.8905 20.0118-61.2148L25.4074-52.2846C24.8705-51.0823 24.2477-49.6836 23.7659-48.1297L13.6915-45.693C10.5985-45.0098 8.72266-42.6031 8.72266-39.4951L8.72266-30.7731C8.72266-27.5728 10.5985-25.1661 13.6915-24.5011L23.8763-22.0832C24.284-20.7145 24.8698-19.297 25.4997-17.9835L20.1221-9.23709C18.3962-6.6087 18.6999-3.37452 20.8787-1.19575L27.1321 5.05769C29.3038 7.2112 32.4165 7.496 35.0488 5.88046L43.8647 0.429584C45.1593 1.05949 46.6249 1.62637 48.1229 2.14515L50.5407 12.2377C51.2057 15.3307 53.6125 17.2436 56.7757 17.2436ZM61.2451-18.2595C51.8845-18.2595 44.2621-25.956 44.2621-35.2977C44.2621-44.5518 51.8916-52.2113 61.2451-52.2113C70.5686-52.2113 78.1911-44.5518 78.1911-35.2977C78.1911-25.956 70.5686-18.2595 61.2451-18.2595Z"/>
  </g>
  <g id="Medium-M" transform="matrix(1 0 0 1 1685.99 1126)">
   <path d="M56.1039 16.601L65.0334 16.601C67.9283 16.601 70.0971 14.8694 70.747 12.0229L73.1849 1.65635C74.8739 1.07902 76.4829 0.456583 77.9531-0.251026L87.0159 5.34846C89.3867 6.83115 92.1986 6.58425 94.1807 4.61236L100.452-1.65901C102.443-3.64978 102.723-6.57068 101.133-8.99191L95.5973-17.9838C96.3049-19.4523 96.9605-21.0425 97.451-22.5647L107.923-25.046C110.726-25.6524 112.415-27.8213 112.415-30.7596L112.415-39.5194C112.415-42.3606 110.726-44.5294 107.923-45.1462L97.5584-47.6606C96.9811-49.4 96.2821-50.957 95.6944-52.2952L101.24-61.4585C102.787-63.9019 102.594-66.6703 100.539-68.6942L94.1602-74.9759C92.1346-76.8095 89.6221-77.1536 87.2078-75.8091L77.9531-70.0919C76.5263-70.8098 74.9173-71.422 73.1952-72.0096L70.747-82.527C70.0971-85.3734 67.9283-87.1051 65.0334-87.1051L56.1039-87.1051C53.209-87.1051 51.0401-85.3734 50.4336-82.5167L47.9523-72.1067C46.2896-71.5294 44.6006-70.907 43.1652-70.1457L33.9642-75.8091C31.4962-77.1536 28.994-76.8632 26.9582-74.9656L20.5897-68.6942C18.5349-66.6703 18.3417-63.9019 19.8884-61.4585L25.4342-52.2952C24.8466-50.957 24.1476-49.4 23.6137-47.6606L13.2574-45.1462C10.4109-44.5294 8.72266-42.3606 8.72266-39.5194L8.72266-30.7596C8.72266-27.8213 10.4109-25.6524 13.2574-25.046L23.7211-22.5647C24.1681-21.0425 24.8237-19.4523 25.5313-17.9838L19.9958-8.99191C18.4057-6.57068 18.6857-3.64978 20.6765-1.65901L26.9479 4.61236C28.9301 6.58425 31.7419 6.83115 34.1562 5.34846L43.219-0.251026C44.6543 0.456583 46.2896 1.07902 47.9523 1.65635L50.4336 12.0229C51.0401 14.8694 53.209 16.601 56.1039 16.601ZM60.5946-18.147C51.1635-18.147 43.4912-25.9061 43.4912-35.3041C43.4912-44.6208 51.1721-52.3366 60.5946-52.3366C69.9823-52.3366 77.6546-44.6208 77.6546-35.3041C77.6546-25.9061 69.9823-18.147 60.5946-18.147Z"/>
  </g>
  <g id="Regular-M" transform="matrix(1 0 0 1 1390.13 1126)">
   <path d="M55.2276 15.7629L64.2025 15.7629C66.7474 15.7629 68.606 14.2676 69.1879 11.7427L71.7001 1.01878C73.6085 0.365083 75.4344-0.329818 77.0945-1.13878L86.4794 4.65456C88.5576 5.96396 90.9769 5.76649 92.7119 4.03151L99.0067-2.26327C100.752-4.0088 101.001-6.52109 99.5885-8.6721L93.847-17.9841C94.6559-19.6548 95.4026-21.4702 95.9528-23.1926L106.791-25.7567C109.264-26.2868 110.707-28.1454 110.707-30.7421L110.707-39.5511C110.707-42.0443 109.264-43.9029 106.791-44.433L96.0563-47.0488C95.4026-49.03 94.6042-50.7936 93.9505-52.309L99.692-61.7763C101.053-63.9168 100.907-66.2844 99.1102-68.0817L92.7119-74.3764C90.9252-76.0079 88.7646-76.3089 86.6347-75.103L77.0945-69.2061C75.4862-70.0151 73.6602-70.71 71.7001-71.3637L69.1879-82.2429C68.606-84.7678 66.7474-86.2631 64.2025-86.2631L55.2276-86.2631C52.6827-86.2631 50.8241-84.7678 50.294-82.2429L47.7299-71.4672C45.8522-70.8135 43.9439-70.1186 42.325-69.2579L32.8366-75.103C30.6549-76.3089 28.4943-76.0597 26.7076-74.3764L20.3093-68.0817C18.512-66.2844 18.3663-63.9168 19.7275-61.7763L25.4691-52.309C24.8154-50.7936 24.017-49.03 23.415-47.0488L12.6911-44.433C10.1662-43.9029 8.72266-42.0443 8.72266-39.5511L8.72266-30.7421C8.72266-28.1454 10.1662-26.2868 12.6911-25.7567L23.5185-23.1926C24.017-21.4702 24.7636-19.6548 25.5726-17.9841L19.831-8.6721C18.4181-6.52109 18.6673-4.0088 20.4128-2.26327L26.7076 4.03151C28.4426 5.76649 30.8619 5.96396 32.9918 4.65456L42.3767-1.13878C43.9957-0.329818 45.8522 0.365083 47.7299 1.01878L50.294 11.7427C50.8241 14.2676 52.6827 15.7629 55.2276 15.7629ZM59.7462-18.0002C50.2231-18.0002 42.4858-25.8411 42.4858-35.3124C42.4858-44.7109 50.2337-52.4999 59.7462-52.4999C69.2175-52.4999 76.9548-44.7109 76.9548-35.3124C76.9548-25.8411 69.2175-18.0002 59.7462-18.0002Z"/>
  </g>
  <g id="Light-M" transform="matrix(1 0 0 1 1093.83 1126)">
   <path d="M54.6629 15.3522L63.9458 15.3522C66.5763 15.3522 68.4178 13.8569 69.0339 11.1781L71.4777 0.745006C73.1465 0.14264 74.8013-0.466706 76.3245-1.173L85.4699 4.51767C87.6849 5.92973 90.0872 5.71516 91.9077 3.89462L98.4078-2.60549C100.256-4.45368 100.505-6.89753 99.0239-9.20254L93.3678-18.2579C94.0741-19.8088 94.7181-21.436 95.2512-23.0215L105.781-25.5C108.425-26.0814 109.886-27.9229 109.886-30.5881L109.886-39.7393C109.886-42.3352 108.425-44.1767 105.781-44.7581L95.3205-47.2712C94.7181-49.03 94.0395-50.6225 93.4371-52.0695L99.0932-61.2288C100.54-63.5061 100.36-65.8737 98.4771-67.7566L91.9077-74.2567C90.0525-76.0079 87.8235-76.2918 85.5738-74.949L76.3245-69.189C74.836-69.8953 73.1811-70.5047 71.4777-71.107L69.0339-81.644C68.4178-84.3229 66.5763-85.8182 63.9458-85.8182L54.6629-85.8182C52.0324-85.8182 50.191-84.3229 49.6095-81.644L47.131-71.1763C45.4416-70.574 43.7728-69.9646 42.2565-69.2237L33.0419-74.949C30.7576-76.2918 28.5286-76.0426 26.6734-74.2567L20.104-67.7566C18.2212-65.8737 18.0412-63.5061 19.4879-61.2288L25.144-52.0695C24.5416-50.6225 23.863-49.03 23.2952-47.2712L12.8622-44.7581C10.1833-44.1767 8.72266-42.3352 8.72266-39.7393L8.72266-30.5881C8.72266-27.9229 10.1833-26.0814 12.8622-25.5L23.3645-23.0215C23.863-21.436 24.5069-19.8088 25.2132-18.2579L19.5572-9.20254C18.0759-6.89753 18.3251-4.45368 20.1733-2.60549L26.6734 3.89462C28.4939 5.71516 30.8961 5.92973 33.1458 4.51767L42.2912-1.173C43.8074-0.466706 45.4416 0.14264 47.131 0.745006L49.6095 11.1781C50.191 13.8569 52.0324 15.3522 54.6629 15.3522ZM59.3355-17.7949C49.7269-17.7949 41.8698-25.7213 41.8698-35.2953C41.8698-44.7793 49.7546-52.6711 59.3355-52.6711C68.9095-52.6711 76.7666-44.7793 76.7666-35.2953C76.7666-25.7213 68.9095-17.7949 59.3355-17.7949Z"/>
  </g>
  <g id="Thin-M" transform="matrix(1 0 0 1 797.661 1126)">
   <path d="M53.9161 14.8091L63.6064 14.8091C66.35 14.8091 68.1689 13.3138 68.8302 10.4313L71.1835 0.382916C72.5355-0.151557 73.964-0.647751 75.3062-1.21826L84.1347 4.33662C86.5308 5.88447 88.9104 5.64727 90.8441 3.71358L97.6157-3.0581C99.5997-5.04208 99.8489-7.3954 98.2771-9.90409L92.7342-18.62C93.3047-20.0125 93.8129-21.3907 94.3234-22.7952L104.446-25.1606C107.317-25.8099 108.8-27.6287 108.8-30.3844L108.8-39.9883C108.8-42.7199 107.317-44.5388 104.446-45.1881L94.3474-47.5654C93.8129-49.03 93.2927-50.3962 92.7582-51.7526L98.3011-60.5046C99.8609-62.963 99.6358-65.3306 97.6398-67.3266L90.8441-74.0982C88.8984-76.0079 86.5788-76.2691 84.1707-74.7453L75.3062-69.1664C73.976-69.7369 72.5475-70.2331 71.1835-70.7676L68.8302-80.852C68.1689-83.7345 66.35-85.2298 63.6064-85.2298L53.9161-85.2298C51.1725-85.2298 49.3536-83.7345 48.7043-80.852L46.339-70.7916C44.8984-70.2571 43.5465-69.7609 42.166-69.1784L33.3135-74.7453C30.8934-76.2691 28.5738-76.0199 26.6281-74.0982L19.8324-67.3266C17.8364-65.3306 17.6112-62.963 19.1711-60.5046L24.714-51.7526C24.1795-50.3962 23.6593-49.03 23.1368-47.5654L13.0885-45.1881C10.206-44.5388 8.72266-42.7199 8.72266-39.9883L8.72266-30.3844C8.72266-27.6287 10.206-25.8099 13.0885-25.1606L23.1608-22.7952C23.6593-21.3907 24.1675-20.0125 24.738-18.62L19.1951-9.90409C17.6233-7.3954 17.8725-5.04208 19.8565-3.0581L26.6281 3.71358C28.5618 5.64727 30.9414 5.88447 33.3495 4.33662L42.178-1.21826C43.5585-0.647751 44.8984-0.151557 46.339 0.382916L48.7043 10.4313C49.3536 13.3138 51.1725 14.8091 53.9161 14.8091ZM58.7924-17.5233C49.0706-17.5233 41.0551-25.5629 41.0551-35.2727C41.0551-44.8698 49.1209-52.8974 58.7924-52.8974C68.5022-52.8974 76.5177-44.8698 76.5177-35.2727C76.5177-25.5629 68.5022-17.5233 58.7924-17.5233Z"/>
  </g>
  <g id="Ultralight-M" transform="matrix(1 0 0 1 501.228 1126)">
   <path d="M53.5336 14.5309L63.4325 14.5309C66.2341 14.5309 68.0413 13.0356 68.7259 10.0488L71.0328 0.197456C72.2225-0.302244 73.5351-0.740481 74.7846-1.24144L83.4508 4.24389C85.9396 5.86129 88.3076 5.61249 90.2993 3.62085L97.21-3.28992C99.2636-5.34345 99.5128-7.65041 97.8946-10.2634L92.4096-18.8055C92.9106-20.1168 93.3493-21.3675 93.8481-22.6793L103.762-24.9867C106.749-25.6708 108.243-27.478 108.243-30.2801L108.243-40.1158C108.243-42.917 106.749-44.7242 103.762-45.4083L93.849-47.7161C93.3493-49.03 92.9102-50.2803 92.4105-51.5904L97.8954-60.1337C99.5132-62.6848 99.2648-65.0524 97.2109-67.1063L90.2993-74.0171C88.3072-76.0079 85.9413-76.2575 83.4521-74.641L74.7846-69.1548C73.5355-69.6558 72.2229-70.094 71.0328-70.5937L68.7259-80.4463C68.0413-83.4331 66.2341-84.9284 63.4325-84.9284L53.5336-84.9284C50.732-84.9284 48.9248-83.4331 48.2407-80.4463L45.9333-70.5946C44.6203-70.0949 43.4306-69.6566 42.1197-69.1552L33.4526-74.641C30.9629-76.2575 28.597-76.0083 26.6049-74.0171L19.6933-67.1063C17.6394-65.0524 17.391-62.6848 19.0088-60.1337L24.4937-51.5904C23.994-50.2803 23.555-49.03 23.0557-47.7161L13.2044-45.4083C10.2175-44.7242 8.72266-42.917 8.72266-40.1158L8.72266-30.2801C8.72266-27.478 10.2175-25.6708 13.2044-24.9867L23.0565-22.6793C23.555-21.3675 23.9936-20.1168 24.4946-18.8055L19.0097-10.2634C17.3914-7.65041 17.6406-5.34345 19.6942-3.28992L26.6049 3.62085C28.5966 5.61249 30.9646 5.86129 33.4538 4.24389L42.1201-1.24144C43.431-0.740481 44.6203-0.302244 45.9333 0.197456L48.2407 10.0488C48.9248 13.0356 50.732 14.5309 53.5336 14.5309ZM58.5142-17.3842C48.7345-17.3842 40.6378-25.4818 40.6378-35.2611C40.6378-44.9162 48.7964-53.0133 58.5142-53.0133C68.2935-53.0133 76.3902-44.9162 76.3902-35.2611C76.3902-25.4818 68.2935-17.3842 58.5142-17.3842Z"/>
  </g>
  <g id="Black-S" transform="matrix(1 0 0 1 2882.57 696)">
   <path d="M47.4121 8.69141L54.248 8.69141C57.9102 8.69141 60.8398 6.39648 61.6211 2.88086L63.2324-3.80859C63.6719-3.95508 64.0625-4.15039 64.4531-4.29688L70.2637-0.683594C73.291 1.17188 77.0508 0.78125 79.5898-1.70898L84.4238-6.54297C86.9629-9.08203 87.3047-12.9883 85.3516-15.9668L81.8359-21.7285C81.9824-22.0703 82.1289-22.4121 82.2754-22.8027L89.0137-24.4141C92.5293-25.1953 94.8242-28.125 94.8242-31.7871L94.8242-38.4766C94.8242-42.0898 92.5293-45.0195 89.0137-45.8496L82.373-47.4121C82.2266-47.8027 82.0801-48.1934 81.8848-48.5352L85.4492-54.4922C87.4023-57.6172 87.0605-61.377 84.4238-63.8672L79.4922-68.75C76.9531-70.9961 73.584-71.4355 70.5566-69.8242L64.4531-66.0645C64.0625-66.2598 63.6719-66.4062 63.2812-66.6016L61.6211-73.3887C60.8398-76.9043 57.9102-79.1992 54.248-79.1992L47.4121-79.1992C43.75-79.1992 40.8203-76.9043 40.0391-73.3398L38.4277-66.6504C37.9883-66.5039 37.5488-66.3086 37.1582-66.1133L31.1035-69.8242C28.0273-71.4355 24.707-71.0449 22.1191-68.7012L17.2363-63.8672C14.5996-61.377 14.2578-57.6172 16.2109-54.4922L19.7754-48.5352C19.5801-48.1934 19.4336-47.8027 19.2871-47.4121L12.6465-45.8496C9.13086-45.0195 6.83594-42.0898 6.83594-38.4766L6.83594-31.7871C6.83594-28.125 9.13086-25.1953 12.6465-24.4141L19.3848-22.8027C19.5312-22.4121 19.6777-22.0703 19.8242-21.7285L16.3086-15.9668C14.3555-12.9883 14.6973-9.08203 17.2363-6.54297L22.0703-1.70898C24.6094 0.78125 28.3691 1.17188 31.3965-0.683594L37.207-4.29688C37.5977-4.15039 37.9883-3.95508 38.4277-3.80859L40.0391 2.88086C40.8203 6.39648 43.75 8.69141 47.4121 8.69141ZM50.8301-22.4121C43.7988-22.4121 38.0371-28.1738 38.0371-35.2539C38.0371-42.2363 43.7988-47.998 50.8301-47.998C57.8613-47.998 63.623-42.2363 63.623-35.2539C63.623-28.1738 57.8613-22.4121 50.8301-22.4121Z"/>
  </g>
  <g id="Heavy-S" transform="matrix(1 0 0 1 2586.76 696)">
   <path d="M46.5017 7.80402L53.3491 7.80402C56.6079 7.80402 59.1918 5.77416 59.8924 2.63885L61.5959-4.48854C62.312-4.72722 62.9677-5.01473 63.5888-5.28798L69.7912-1.44421C72.4728 0.20382 75.7946-0.129183 78.0456-2.34283L82.8795-7.17681C85.1305-9.42777 85.4377-12.8846 83.692-15.5404L79.9344-21.6939C80.2077-22.2778 80.4694-22.8961 80.685-23.5288L87.8727-25.2438C90.9965-25.9329 93.0149-28.5168 93.0149-31.7871L93.0149-38.4881C93.0149-41.698 90.9965-44.282 87.8727-45.0083L80.7827-46.6976C80.544-47.3879 80.2707-48.032 79.9948-48.5813L83.7897-54.9186C85.5239-57.6863 85.2397-60.9966 82.9026-63.2218L77.971-68.0931C75.7085-70.0972 72.7427-70.4905 70.0496-69.0521L63.5888-65.0733C62.9792-65.3839 62.3235-65.6341 61.6333-65.9101L59.8924-73.1467C59.1918-76.282 56.6079-78.3118 53.3491-78.3118L46.5017-78.3118C43.2429-78.3118 40.659-76.282 39.9699-73.1094L38.2549-65.9704C37.5504-65.7318 36.8343-65.4443 36.2247-65.1222L29.8128-69.0521C27.0708-70.4905 24.1423-70.146 21.8426-68.0558L16.9482-63.2218C14.6111-60.9966 14.327-57.6863 16.0611-54.9186L19.8561-48.5813C19.5801-48.032 19.3068-47.3879 19.0797-46.6976L11.9896-45.0083C8.85427-44.282 6.83594-41.698 6.83594-38.4881L6.83594-31.7871C6.83594-28.5168 8.85427-25.9329 11.9896-25.2438L19.1773-23.5288C19.3814-22.8961 19.6432-22.2778 19.9164-21.6939L16.1588-15.5404C14.4131-12.8846 14.7203-9.42777 16.9713-7.17681L21.8052-2.34283C24.0562-0.129183 27.378 0.20382 30.0712-1.44421L36.2735-5.28798C36.8831-5.01473 37.5504-4.72722 38.2549-4.48854L39.9699 2.63885C40.659 5.77416 43.2429 7.80402 46.5017 7.80402ZM49.9312-22.2738C42.8077-22.2738 36.9884-28.1162 36.9884-35.2654C36.9884-42.3285 42.8077-48.1594 49.9312-48.1594C57.0431-48.1594 62.8624-42.3285 62.8624-35.2654C62.8624-28.1162 57.0431-22.2738 49.9312-22.2738Z"/>
  </g>
  <g id="Bold-S" transform="matrix(1 0 0 1 2291.06 696)">
   <path d="M45.4834 6.81152L52.3438 6.81152C55.1514 6.81152 57.3486 5.07812 57.959 2.36816L59.7656-5.24902C60.791-5.59082 61.7432-5.98145 62.6221-6.39648L69.2627-2.29492C71.5576-0.878906 74.3896-1.14746 76.3184-3.05176L81.1523-7.88574C83.0811-9.81445 83.3496-12.7686 81.8359-15.0635L77.8076-21.6553C78.2227-22.5098 78.6133-23.4375 78.9062-24.3408L86.5967-26.1719C89.2822-26.7578 90.9912-28.9551 90.9912-31.7871L90.9912-38.501C90.9912-41.2598 89.2822-43.457 86.5967-44.0674L79.0039-45.8984C78.6621-46.9238 78.2471-47.8516 77.8809-48.6328L81.9336-55.3955C83.4229-57.7637 83.2031-60.5713 81.2012-62.5L76.2695-67.3584C74.3164-69.0918 71.8018-69.4336 69.4824-68.1885L62.6221-63.9648C61.7676-64.4043 60.8154-64.7705 59.79-65.1367L57.959-72.876C57.3486-75.5859 55.1514-77.3193 52.3438-77.3193L45.4834-77.3193C42.6758-77.3193 40.4785-75.5859 39.8926-72.8516L38.0615-65.21C37.0605-64.8682 36.0352-64.4775 35.1807-64.0137L28.3691-68.1885C26.001-69.4336 23.5107-69.1406 21.5332-67.334L16.626-62.5C14.624-60.5713 14.4043-57.7637 15.8936-55.3955L19.9463-48.6328C19.5801-47.8516 19.165-46.9238 18.8477-45.8984L11.2549-44.0674C8.54492-43.457 6.83594-41.2598 6.83594-38.501L6.83594-31.7871C6.83594-28.9551 8.54492-26.7578 11.2549-26.1719L18.9453-24.3408C19.2139-23.4375 19.6045-22.5098 20.0195-21.6553L15.9912-15.0635C14.4775-12.7686 14.7461-9.81445 16.6748-7.88574L21.5088-3.05176C23.4375-1.14746 26.2695-0.878906 28.5889-2.29492L35.2295-6.39648C36.084-5.98145 37.0605-5.59082 38.0615-5.24902L39.8926 2.36816C40.4785 5.07812 42.6758 6.81152 45.4834 6.81152ZM48.9258-22.1191C41.6992-22.1191 35.8154-28.0518 35.8154-35.2783C35.8154-42.4316 41.6992-48.3398 48.9258-48.3398C56.1279-48.3398 62.0117-42.4316 62.0117-35.2783C62.0117-28.0518 56.1279-22.1191 48.9258-22.1191Z"/>
  </g>
  <g id="Semibold-S" transform="matrix(1 0 0 1 1995.05 696)">
   <path d="M44.7813 6.12725L51.6506 6.12725C54.1472 6.12725 56.0778 4.59824 56.626 2.18154L58.5037-5.77334C59.7424-6.18623 60.8989-6.64795 61.9556-7.16074L68.8983-2.88145C70.9267-1.62539 73.421-1.84951 75.1275-3.54053L79.9615-8.37451C81.6681-10.0811 81.91-12.6886 80.5563-14.7347L76.3413-21.6286C76.8541-22.6697 77.3336-23.8107 77.6799-24.9007L85.7169-26.8117C88.1003-27.3266 89.596-29.2572 89.596-31.7871L89.596-38.5099C89.596-40.9576 88.1003-42.8883 85.7169-43.4187L77.7775-45.3475C77.3646-46.6039 76.8519-47.7271 76.4234-48.6684L80.6539-55.7243C81.9743-57.817 81.799-60.278 80.0281-62.0023L75.0965-66.8519C73.3566-68.3986 71.153-68.7049 69.0914-67.5931L61.9556-63.2006C60.9322-63.7289 59.7757-64.1751 58.5192-64.6035L56.626-72.6894C56.0778-75.1061 54.1472-76.6351 51.6506-76.6351L44.7813-76.6351C42.2848-76.6351 40.3541-75.1061 39.8393-72.6738L37.9282-64.6856C36.7229-64.2728 35.4842-63.811 34.4608-63.2494L27.3738-67.5931C25.2634-68.7049 23.0753-68.4475 21.3199-66.8363L16.4038-62.0023C14.6329-60.278 14.4576-57.817 15.778-55.7243L20.0085-48.6684C19.5801-47.7271 19.0673-46.6039 18.6877-45.3475L10.7483-43.4187C8.33164-42.8883 6.83594-40.9576 6.83594-38.5099L6.83594-31.7871C6.83594-29.2572 8.33164-27.3266 10.7483-26.8117L18.7854-24.9007C19.0983-23.8107 19.5778-22.6697 20.0906-21.6286L15.8757-14.7347C14.522-12.6886 14.7639-10.0811 16.4704-8.37451L21.3044-3.54053C23.0109-1.84951 25.5053-1.62539 27.5669-2.88145L34.5097-7.16074C35.533-6.64795 36.7229-6.18623 37.9282-5.77334L39.8393 2.18154C40.3541 4.59824 42.2848 6.12725 44.7813 6.12725ZM48.2326-22.0125C40.935-22.0125 35.0067-28.0073 35.0067-35.2872C35.0067-42.5027 40.935-48.4643 48.2326-48.4643C55.497-48.4643 61.4252-42.5027 61.4252-35.2872C61.4252-28.0073 55.497-22.0125 48.2326-22.0125Z"/>
  </g>
  <g id="Medium-S" transform="matrix(1 0 0 1 1698.87 696)">
   <path d="M44.249 5.6084L51.125 5.6084C53.3857 5.6084 55.1143 4.23438 55.6152 2.04004L57.5469-6.1709C58.9473-6.6377 60.2588-7.15332 61.4502-7.74023L68.6221-3.32617C70.4482-2.19141 72.6865-2.38184 74.2246-3.91113L79.0586-8.74512C80.5967-10.2832 80.8184-12.6279 79.5859-14.4854L75.2295-21.6084C75.8164-22.791 76.3633-24.0938 76.75-25.3252L85.0498-27.2969C87.2041-27.7578 88.5381-29.4863 88.5381-31.7871L88.5381-38.5166C88.5381-40.7285 87.2041-42.457 85.0498-42.9268L76.8477-44.9297C76.3809-46.3613 75.7939-47.6328 75.3184-48.6953L79.6836-55.9736C80.876-57.8574 80.7344-60.0557 79.1387-61.625L74.207-66.4678C72.6289-67.873 70.6611-68.1523 68.7949-67.1416L61.4502-62.6211C60.2988-63.2168 58.9873-63.7236 57.5557-64.1992L55.6152-72.5479C55.1143-74.7422 53.3857-76.1162 51.125-76.1162L44.249-76.1162C41.9883-76.1162 40.2598-74.7422 39.7988-72.5391L37.8271-64.2881C36.4668-63.8213 35.0664-63.3057 33.915-62.6699L26.6191-67.1416C24.7041-68.1523 22.7451-67.9219 21.1582-66.459L16.2354-61.625C14.6396-60.0557 14.498-57.8574 15.6904-55.9736L20.0557-48.6953C19.5801-47.6328 18.9932-46.3613 18.5664-44.9297L10.3643-42.9268C8.16992-42.457 6.83594-40.7285 6.83594-38.5166L6.83594-31.7871C6.83594-29.4863 8.16992-27.7578 10.3643-27.2969L18.6641-25.3252C19.0107-24.0938 19.5576-22.791 20.1445-21.6084L15.7881-14.4854C14.5557-12.6279 14.7773-10.2832 16.3154-8.74512L21.1494-3.91113C22.6875-2.38184 24.9258-2.19141 26.792-3.32617L33.9639-7.74023C35.1152-7.15332 36.4668-6.6377 37.8271-6.1709L39.7988 2.04004C40.2598 4.23438 41.9883 5.6084 44.249 5.6084ZM47.707-21.9316C40.3555-21.9316 34.3936-27.9736 34.3936-35.2939C34.3936-42.5566 40.3555-48.5586 47.707-48.5586C55.0186-48.5586 60.9805-42.5566 60.9805-35.2939C60.9805-27.9736 55.0186-21.9316 47.707-21.9316Z"/>
  </g>
  <g id="Regular-S" transform="matrix(1 0 0 1 1402.85 696)">
   <path d="M43.5547 4.93164L50.4395 4.93164C52.3926 4.93164 53.8574 3.75977 54.2969 1.85547L56.2988-6.68945C57.9102-7.22656 59.4238-7.8125 60.791-8.49609L68.2617-3.90625C69.8242-2.92969 71.7285-3.07617 73.0469-4.39453L77.8809-9.22852C79.1992-10.5469 79.3945-12.5488 78.3203-14.1602L73.7793-21.582C74.4629-22.9492 75.0977-24.4629 75.5371-25.8789L84.1797-27.9297C86.0352-28.3203 87.1582-29.7852 87.1582-31.7871L87.1582-38.5254C87.1582-40.4297 86.0352-41.8945 84.1797-42.2852L75.6348-44.3848C75.0977-46.0449 74.4141-47.5098 73.877-48.7305L78.418-56.2988C79.4434-57.9102 79.3457-59.7656 77.9785-61.1328L73.0469-65.9668C71.6797-67.1875 70.0195-67.4316 68.4082-66.5527L60.791-61.8652C59.4727-62.5488 57.959-63.1348 56.2988-63.6719L54.2969-72.3633C53.8574-74.2676 52.3926-75.4395 50.4395-75.4395L43.5547-75.4395C41.6016-75.4395 40.1367-74.2676 39.7461-72.3633L37.6953-63.7695C36.1328-63.2324 34.5215-62.6465 33.2031-61.9141L25.6348-66.5527C23.9746-67.4316 22.3145-67.2363 20.9473-65.9668L16.0156-61.1328C14.6484-59.7656 14.5508-57.9102 15.5762-56.2988L20.1172-48.7305C19.5801-47.5098 18.8965-46.0449 18.4082-44.3848L9.86328-42.2852C7.95898-41.8945 6.83594-40.4297 6.83594-38.5254L6.83594-31.7871C6.83594-29.7852 7.95898-28.3203 9.86328-27.9297L18.5059-25.8789C18.8965-24.4629 19.5312-22.9492 20.2148-21.582L15.6738-14.1602C14.5996-12.5488 14.7949-10.5469 16.1133-9.22852L20.9473-4.39453C22.2656-3.07617 24.1699-2.92969 25.7812-3.90625L33.252-8.49609C34.5703-7.8125 36.1328-7.22656 37.6953-6.68945L39.7461 1.85547C40.1367 3.75977 41.6016 4.93164 43.5547 4.93164ZM47.0215-21.8262C39.5996-21.8262 33.5938-27.9297 33.5938-35.3027C33.5938-42.627 39.5996-48.6816 47.0215-48.6816C54.3945-48.6816 60.4004-42.627 60.4004-35.3027C60.4004-27.9297 54.3945-21.8262 47.0215-21.8262Z"/>
  </g>
  <g id="Light-S" transform="matrix(1 0 0 1 1106.5 696)">
   <path d="M43.0552 4.56836L50.2124 4.56836C52.2412 4.56836 53.6909 3.39649 54.1606 1.35596L56.1021-6.93164C57.5015-7.42334 58.8638-7.93359 60.1099-8.52637L67.3687-4.02734C69.0523-2.95996 70.9414-3.12158 72.3355-4.51562L77.3511-9.53125C78.7603-10.9404 78.9556-12.8818 77.8208-14.6294L73.3555-21.8242C73.9482-23.0854 74.4922-24.4326 74.9165-25.7275L83.2866-27.7026C85.2935-28.1387 86.4316-29.5884 86.4316-31.6509L86.4316-38.6919C86.4316-40.687 85.2935-42.1367 83.2866-42.5728L74.9839-44.5815C74.4922-46.0449 73.9146-47.3584 73.4229-48.5186L77.8882-55.8145C78.9893-57.5469 78.8613-59.4023 77.4185-60.8452L72.3355-65.8608C70.9077-67.1875 69.187-67.4165 67.4697-66.4165L60.1099-61.8501C58.8975-62.4429 57.5352-62.9531 56.1021-63.4448L54.1606-71.8335C53.6909-73.874 52.2412-75.0459 50.2124-75.0459L43.0552-75.0459C41.0264-75.0459 39.5767-73.874 39.1406-71.8335L37.1655-63.5122C35.7695-63.0205 34.3701-62.5103 33.1426-61.8838L25.8164-66.4165C24.0654-67.4165 22.3447-67.2212 20.917-65.8608L15.834-60.8452C14.3911-59.4023 14.2632-57.5469 15.3643-55.8145L19.8296-48.5186C19.3379-47.3584 18.7603-46.0449 18.3022-44.5815L10.0146-42.5728C7.97412-42.1367 6.83594-40.687 6.83594-38.6919L6.83594-31.6509C6.83594-29.5884 7.97412-28.1387 10.0146-27.7026L18.3696-25.7275C18.7603-24.4326 19.3042-23.0854 19.897-21.8242L15.4316-14.6294C14.2969-12.8818 14.4922-10.9404 15.9014-9.53125L20.917-4.51562C22.311-3.12158 24.2002-2.95996 25.9175-4.02734L33.1763-8.52637C34.4038-7.93359 35.7695-7.42334 37.1655-6.93164L39.1406 1.35596C39.5767 3.39649 41.0264 4.56836 43.0552 4.56836ZM46.6582-21.6445C39.1606-21.6445 33.0488-27.8237 33.0488-35.2876C33.0488-42.6875 39.1758-48.833 46.6582-48.833C54.1221-48.833 60.2339-42.6875 60.2339-35.2876C60.2339-27.8237 54.1221-21.6445 46.6582-21.6445Z"/>
  </g>
  <g id="Thin-S" transform="matrix(1 0 0 1 810.269 696)">
   <path d="M42.3945 4.0879L49.9121 4.0879C52.041 4.0879 53.4707 2.91602 53.9805 0.695322L55.8418-7.25195C56.9609-7.68359 58.1231-8.09375 59.209-8.56641L66.1875-4.1875C68.0313-3 69.9004-3.18164 71.3945-4.67578L76.6504-9.93164C78.1797-11.4609 78.375-13.3223 77.1602-15.25L72.7949-22.1445C73.2676-23.2656 73.6914-24.3926 74.0957-25.5273L82.1055-27.4023C84.3125-27.8984 85.4707-29.3281 85.4707-31.4707L85.4707-38.9121C85.4707-41.0273 84.3125-42.457 82.1055-42.9531L74.1231-44.8418C73.6914-46.0449 73.2539-47.1582 72.8223-48.2383L77.1875-55.1738C78.3887-57.0664 78.2207-58.9219 76.6777-60.4648L71.3945-65.7207C69.8867-67.1875 68.086-67.3965 66.2285-66.2363L59.209-61.8301C58.1367-62.3027 56.9746-62.7129 55.8418-63.1445L53.9805-71.1328C53.4707-73.3535 52.041-74.5254 49.9121-74.5254L42.3945-74.5254C40.2656-74.5254 38.8359-73.3535 38.3399-71.1328L36.4649-63.1719C35.2891-62.7402 34.1699-62.3301 33.0625-61.8438L26.0566-66.2363C24.1855-67.3965 22.3848-67.2012 20.877-65.7207L15.5938-60.4648C14.0508-58.9219 13.8828-57.0664 15.084-55.1738L19.4492-48.2383C19.0176-47.1582 18.5801-46.0449 18.1621-44.8418L10.2148-42.9531C7.99414-42.457 6.83594-41.0273 6.83594-38.9121L6.83594-31.4707C6.83594-29.3281 7.99414-27.8984 10.2148-27.4023L18.1895-25.5273C18.5801-24.3926 19.0039-23.2656 19.4766-22.1445L15.1113-15.25C13.8965-13.3223 14.0918-11.4609 15.6211-9.93164L20.877-4.67578C22.3711-3.18164 24.2402-3 26.0977-4.1875L33.0762-8.56641C34.1836-8.09375 35.2891-7.68359 36.4649-7.25195L38.3399 0.695322C38.8359 2.91602 40.2656 4.0879 42.3945 4.0879ZM46.1777-21.4043C38.5801-21.4043 32.3281-27.6836 32.3281-35.2676C32.3281-42.7676 38.6152-49.0332 46.1777-49.0332C53.7617-49.0332 60.0137-42.7676 60.0137-35.2676C60.0137-27.6836 53.7617-21.4043 46.1777-21.4043Z"/>
  </g>
  <g id="Ultralight-S" transform="matrix(1 0 0 1 513.804 696)">
   <path d="M42.0562 3.84181L49.7583 3.84181C51.9385 3.84181 53.3579 2.66993 53.8882 0.356945L55.7085-7.41601C56.6841-7.81689 57.7437-8.17578 58.7476-8.58691L65.5825-4.26953C67.5083-3.02051 69.3672-3.2124 70.9126-4.75781L76.2915-10.1367C77.8823-11.7275 78.0776-13.5478 76.8218-15.5679L72.5078-22.3086C72.919-23.3579 73.2813-24.3721 73.6753-25.4248L81.5005-27.2485C83.8101-27.7754 84.9785-29.1948 84.9785-31.3784L84.9785-39.0249C84.9785-41.2017 83.8101-42.6211 81.5005-43.1479L73.6821-44.9751C73.2813-46.0449 72.9155-47.0557 72.5147-48.0947L76.8286-54.8457C78.0811-56.8203 77.8926-58.6758 76.2984-60.27L70.9126-65.6489C69.3638-67.1875 67.522-67.3862 65.5928-66.144L58.7476-61.8198C57.7471-62.231 56.6875-62.5898 55.7085-62.9907L53.8882-70.7739C53.3579-73.0869 51.9385-74.2588 49.7583-74.2588L42.0562-74.2588C39.876-74.2588 38.4566-73.0869 37.9297-70.7739L36.106-62.9976C35.043-62.5967 34.0674-62.2378 33.0215-61.8232L26.1797-66.144C24.2471-67.3862 22.4053-67.1909 20.8564-65.6489L15.4707-60.27C13.8765-58.6758 13.688-56.8203 14.9404-54.8457L19.2544-48.0947C18.8535-47.0557 18.4878-46.0449 18.0903-44.9751L10.3174-43.1479C8.00439-42.6211 6.83594-41.2017 6.83594-39.0249L6.83594-31.3784C6.83594-29.1948 8.00439-27.7754 10.3174-27.2485L18.0972-25.4248C18.4878-24.3721 18.8501-23.3579 19.2612-22.3086L14.9473-15.5679C13.6914-13.5478 13.8867-11.7275 15.4775-10.1367L20.8564-4.75781C22.4019-3.2124 24.2607-3.02051 26.1899-4.26953L33.0249-8.58691C34.0708-8.17578 35.043-7.81689 36.106-7.41601L37.9297 0.356945C38.4566 2.66993 39.876 3.84181 42.0562 3.84181ZM45.9316-21.2813C38.2827-21.2813 31.959-27.6118 31.959-35.2573C31.959-42.8086 38.3281-49.1357 45.9316-49.1357C53.5772-49.1357 59.9009-42.8086 59.9009-35.2573C59.9009-27.6118 53.5772-21.2813 45.9316-21.2813Z"/>
  </g>
 </g>
</svg>
